<?xml version="1.0" encoding="UTF-8"?>
<svg width="70px" height="70px" viewBox="0 0 70 70" version="1.1" xmlns="http://www.w3.org/2000/svg" xmlns:xlink="http://www.w3.org/1999/xlink">
    <!-- Generator: Sketch 51.3 (57544) - http://www.bohemiancoding.com/sketch -->
    <title>Icons / 70px / Cat / Color</title>
    <desc>Created with Sketch.</desc>
    <defs></defs>
    <g id="Icons-/-70px-/-Cat-/-Color" stroke="none" stroke-width="1" fill="none" fill-rule="evenodd">
        <g id="Group-29" transform="translate(3.000000, 6.000000)">
            <path d="M54.1896613,0.52408871 C50.7698226,0.52408871 44.7667581,10.8643306 42.042,15.908121 C38.9649839,15.4688468 35.7097419,15.2109435 32.3098226,15.2109435 C28.9109516,15.2109435 25.6557097,15.4688468 22.5786935,15.908121 C19.8539355,10.8643306 13.8498226,0.52408871 10.4310323,0.52408871 C5.90829032,0.52408871 3.76014516,26.1655403 4.5286129,34.83675 C5.95127419,50.872879 17.7550645,58.6257016 32.3098226,58.6257016 C46.865629,58.6257016 58.668371,50.872879 60.0910323,34.83675 C60.8595,26.1655403 58.7124032,0.52408871 54.1896613,0.52408871 Z" id="Stroke-19" stroke="#3C3C3C" stroke-width="3" fill="#EFEFEF" stroke-linecap="round"></path>
            <path d="M10.6027581,8.00454032 L18.3555806,17.3079274 C18.3555806,17.3079274 13.7038871,17.3079274 9.05219355,20.4090565 C9.05219355,20.4090565 9.05219355,15.7573629 10.6027581,8.00454032 Z" id="Stroke-1" fill="#FF9F91"></path>
            <path d="M54.017621,8.00454032 L46.2647984,17.3079274 C46.2647984,17.3079274 50.9164919,17.3079274 55.5681855,20.4090565 C55.5681855,20.4090565 55.5681855,15.7573629 54.017621,8.00454032 Z" id="Stroke-3" fill="#FF9F91"></path>
            <path d="M32.3097177,43.1204758 C32.3097177,45.2612823 32.3097177,49.3227339 28.4338306,49.3227339 C26.7459274,49.3227339 25.3106855,48.2449919 24.7781048,46.7405565" id="Stroke-7" stroke="#FF9F91" stroke-width="3" stroke-linecap="round"></path>
            <path d="M39.8419597,46.7380403 C39.3104274,48.2435242 37.8741371,49.3223145 36.1862339,49.3223145 C32.3103468,49.3223145 32.3092984,45.2608629 32.3092984,43.1200565" id="Stroke-9" stroke="#FF9F91" stroke-width="3" stroke-linecap="round"></path>
            <path d="M35.100629,41.880129 C35.100629,42.9075484 33.8509516,44.6709355 32.3098226,44.6709355 C30.7686935,44.6709355 29.5190161,42.9075484 29.5190161,41.880129 C29.5190161,40.8527097 30.7686935,40.0192419 32.3098226,40.0192419 C33.8509516,40.0192419 35.100629,40.8527097 35.100629,41.880129" id="Fill-5" fill="#FF9F91"></path>
            <path d="M23.7823468,36.1431452 C23.7823468,38.2839516 22.0472661,40.0190323 19.9064597,40.0190323 C17.7656532,40.0190323 16.0295242,38.2839516 16.0295242,36.1431452 C16.0295242,34.0023387 17.7656532,32.2672581 19.9064597,32.2672581 C22.0472661,32.2672581 23.7823468,34.0023387 23.7823468,36.1431452" id="Fill-13" fill="#3C3C3C"></path>
            <path d="M40.8380323,36.1431452 C40.8380323,38.2839516 42.5731129,40.0190323 44.7139194,40.0190323 C46.8547258,40.0190323 48.5908548,38.2839516 48.5908548,36.1431452 C48.5908548,34.0023387 46.8547258,32.2672581 44.7139194,32.2672581 C42.5731129,32.2672581 40.8380323,34.0023387 40.8380323,36.1431452" id="Fill-17" fill="#3C3C3C"></path>
            <path d="M47.039871,44.6710403 C47.039871,44.6710403 56.3432581,40.0193468 64.0960806,44.6710403" id="Stroke-21" stroke="#3C3C3C" stroke-width="3" stroke-linecap="round"></path>
            <path d="M17.5800887,44.6710403 C17.5800887,44.6710403 8.27670161,40.0193468 0.523879032,44.6710403" id="Stroke-23" stroke="#3C3C3C" stroke-width="3" stroke-linecap="round"></path>
            <path d="M50.141,49.3227339 C50.141,49.3227339 56.3432581,46.2216048 60.9949516,49.3227339" id="Stroke-25" stroke="#3C3C3C" stroke-width="3" stroke-linecap="round"></path>
            <path d="M14.4789597,49.3227339 C14.4789597,49.3227339 8.27670161,46.2216048 3.62500806,49.3227339" id="Stroke-27" stroke="#3C3C3C" stroke-width="3" stroke-linecap="round"></path>
        </g>
    </g>
</svg>