<?xml version="1.0" encoding="UTF-8"?>
<svg width="70px" height="70px" viewBox="0 0 70 70" version="1.1" xmlns="http://www.w3.org/2000/svg" xmlns:xlink="http://www.w3.org/1999/xlink">
    <!-- Generator: Sketch 51.3 (57544) - http://www.bohemiancoding.com/sketch -->
    <title>Icons / 70px / Dog / Color</title>
    <desc>Created with Sketch.</desc>
    <defs></defs>
    <g id="Icons-/-70px-/-Dog-/-Color" stroke="none" stroke-width="1" fill="none" fill-rule="evenodd">
        <g id="Group-17" transform="translate(0.000000, 5.000000)">
            <path d="M55.9999041,18.6345753 C53.2123699,8.87676712 46.5978493,0.25909589 34.9999041,0.25909589 C23.4019589,0.25909589 16.7874384,8.87676712 13.9999041,18.6345753 C12.2499041,24.7600548 10.4999041,30.958411 10.4999041,35.6973151 C10.4999041,48.5034795 21.4688082,58.8845753 34.9999041,58.8845753 C48.531,58.8845753 59.4999041,48.5034795 59.4999041,35.6973151 C59.4999041,30.958411 57.7499041,24.7600548 55.9999041,18.6345753 Z" id="Stroke-1" stroke="#3C3C3C" stroke-width="4" fill="#FFF5E5" stroke-linecap="round" stroke-linejoin="round"></path>
            <path d="M34.6460685,43.1371644 C34.6460685,46.5182603 31.9045616,49.2597671 28.5234658,49.2597671 C25.8586712,49.2597671 23.5918219,47.5567534 22.7499041,45.180589" id="Stroke-5" stroke="#000000" stroke-width="4" stroke-linecap="round"></path>
            <path d="M46.5429041,45.1777123 C45.7029041,47.5557945 43.434137,49.2597671 40.7693425,49.2597671 C37.3872877,49.2597671 34.6457808,46.5182603 34.6457808,43.1371644" id="Stroke-7" stroke="#000000" stroke-width="4" stroke-linecap="round"></path>
            <path d="M40.2500959,38.6825753 C40.2500959,40.5735342 37.7406438,43.8175068 34.6462603,43.8175068 C31.5509178,43.8175068 29.0424247,40.5735342 29.0424247,38.6825753 C29.0424247,36.7925753 31.5509178,35.2592877 34.6462603,35.2592877 C37.7406438,35.2592877 40.2500959,36.7925753 40.2500959,38.6825753" id="Fill-3" fill="#000000"></path>
            <path d="M29.7499041,19.5096712 C29.7499041,21.4428219 28.1830548,23.0096712 26.2499041,23.0096712 C24.3167534,23.0096712 22.7499041,21.4428219 22.7499041,19.5096712 C22.7499041,17.5765205 24.3167534,16.0096712 26.2499041,16.0096712 C28.1830548,16.0096712 29.7499041,17.5765205 29.7499041,19.5096712" id="Fill-9" fill="#3C3C3C"></path>
            <path d="M56,18.6350548 C53.4675342,9.77094521 47.7639726,1.87245205 38.0493151,0.494506849 C35.0815068,3.63012329 33.25,7.85121918 33.25,12.5095753 C33.25,22.1743699 41.0852055,30.0095753 50.75,30.0095753 C53.540411,30.0095753 56.1678082,29.3393014 58.5094521,28.1780685 C57.8420548,25.1258767 56.9253425,21.8723151 56,18.6350548" id="Fill-11" fill="#B16905"></path>
            <path d="M43.75,23.0095753 C41.8168493,23.0095753 40.25,21.442726 40.25,19.5095753 C40.25,17.5764247 41.8168493,16.0095753 43.75,16.0095753 C45.6831507,16.0095753 47.25,17.5764247 47.25,19.5095753 C47.25,21.442726 45.6831507,23.0095753 43.75,23.0095753" id="Path" fill="#3C3C3C"></path>
            <path d="M55.9999041,18.6345753 C53.2123699,8.87676712 46.5978493,0.25909589 34.9999041,0.25909589 C23.4019589,0.25909589 16.7874384,8.87676712 13.9999041,18.6345753 C12.2499041,24.7600548 10.4999041,30.958411 10.4999041,35.6973151 C10.4999041,48.5034795 21.4688082,58.8845753 34.9999041,58.8845753 C48.531,58.8845753 59.4999041,48.5034795 59.4999041,35.6973151 C59.4999041,30.958411 57.7499041,24.7600548 55.9999041,18.6345753 Z" id="Stroke-1" stroke="#3C3C3C" stroke-width="4" stroke-linecap="round" stroke-linejoin="round"></path>
            <path d="M21.2381918,3.85019178 C23.2854521,2.45882192 23.6133973,0.740465753 21.8912055,0.43169863 C18.4449041,-0.184876712 14.0444932,-0.468712329 8.69380822,1.90073973 C5.48915068,3.32087671 0.429972603,7.60238356 0.0329863014,12.2741644 C-0.403315068,17.4129315 3.54928767,21.8526575 6.98791781,22.5085479 C12.1449041,23.4933425 11.0028493,10.8041644 21.2381918,3.85019178 Z" id="Stroke-13" stroke="#3C3C3C" stroke-width="4" fill="#B16905" stroke-linecap="round" stroke-linejoin="round"></path>
            <path d="M48.7618082,3.85019178 C46.7145479,2.45882192 46.3866027,0.740465753 48.1087945,0.43169863 C51.5550959,-0.184876712 55.9555068,-0.468712329 61.3061918,1.90073973 C64.5108493,3.32087671 69.5700274,7.60238356 69.9670137,12.2741644 C70.4033151,17.4129315 66.4507123,21.8526575 63.0120822,22.5085479 C57.8550959,23.4933425 58.9971507,10.8041644 48.7618082,3.85019178 Z" id="Stroke-15" stroke="#3C3C3C" stroke-width="4" fill="#B16905" stroke-linecap="round" stroke-linejoin="round"></path>
        </g>
    </g>
</svg>