<?xml version="1.0" encoding="UTF-8"?>
<svg width="70px" height="76px" viewBox="0 0 70 76" version="1.1" xmlns="http://www.w3.org/2000/svg" xmlns:xlink="http://www.w3.org/1999/xlink">
    <!-- Generator: Sketch 51.3 (57544) - http://www.bohemiancoding.com/sketch -->
    <title>Icons / 70px / Necesidades-si / Color</title>
    <desc>Created with Sketch.</desc>
    <defs></defs>
    <g id="Icons-/-70px-/-Necesidades-si-/-Color" stroke="none" stroke-width="1" fill="none" fill-rule="evenodd">
        <g id="Group-2" transform="translate(3.000000, -11.000000)">
            <path d="M33.9394819,34.7501934 C38.3648812,29.8555702 37.196978,16.6309354 26.8908121,13.6866849 C13.6081688,9.89164392 11.7106483,13.6866849 11.7106483,13.6866849 L2.22304595,13.6866849 C2.22304595,13.6866849 0.324236399,23.1755763 2.22304595,25.0718077 C4.12056642,26.9693282 13.6081688,30.7656582 13.6081688,30.7656582 C13.6081688,30.7656582 9.81312783,42.150781 11.7106483,47.8433424 C13.6081688,53.5359038 19.3007302,59.2284653 19.3007302,59.2284653 L15.5056892,74.4099181 C15.5056892,74.4099181 9.81312783,74.4099181 11.7106483,82 L17.4032097,82 L23.0957711,82 L26.8908121,64.6630859 C26.8908121,64.6630859 29.2403687,64.6630859 33.9394819,64.6630859 C36.8389212,59.6434998 39.6084429,56.9586039 42.2480469,56.6083984 C47.906901,55.8576184 54.1043294,55.8576184 60.840332,56.6083984 C57.793457,50.7650278 56.2700195,47.8433424 56.2700195,47.8433424 L33.9394819,34.7501934 Z" id="Fill-1" fill="#FCEDCD"></path>
            <path d="M24.0372,18.5117 C24.0372,18.5117 18.2422,33.9647 27.9002,35.8957 C37.5582,37.8267 39.4902,16.5797 25.9692,12.7167 C12.4482,8.8537 10.5162,12.7167 10.5162,12.7167 L0.8582,12.7167 C0.8582,12.7167 -1.0728,22.3747 0.8582,24.3057 C2.7902,26.2377 12.4482,30.1007 12.4482,30.1007 C12.4482,30.1007 8.5842,41.6907 10.5162,47.4847 C12.4482,53.2797 18.2422,59.0747 18.2422,59.0747 L14.3792,74.5267 C14.3792,74.5267 8.5842,74.5267 10.5162,82.2527 L22.1052,82.2527 L25.9692,64.8687 L33.7607422,64.8687" id="Stroke-5" stroke="#3C3C3C" stroke-width="4" stroke-linecap="round" stroke-linejoin="round"></path>
            <path d="M34.131,35.8955 C34.131,35.8955 53.558,45.9035 56.575,48.9945 C59.592,52.0845 63.124,63.1225 63.124,63.1225" id="Stroke-13" stroke="#3C3C3C" stroke-width="4" stroke-linecap="round" stroke-linejoin="round"></path>
            <path d="M37.5582,57.1431 L6.6532,41.6901" id="Stroke-9" stroke="#89E7DF" stroke-width="4" stroke-linecap="round" stroke-linejoin="round"></path>
            <path d="M27.9005,51.3482 L41.4215,35.8952" id="Stroke-11" stroke="#89E7DF" stroke-width="4" stroke-linecap="round" stroke-linejoin="round"></path>
            <path d="M33.6949,70.6636 C33.6949,79.1976 40.6129,86.1166 49.1479,86.1166 C57.6819,86.1166 64.5999,79.1976 64.5999,70.6636 C64.5999,62.1296 57.6819,55.2116 49.1479,55.2116 C40.6129,55.2116 33.6949,62.1296 33.6949,70.6636 Z" id="Stroke-7" stroke="#3C3C3C" stroke-width="4" fill="#89E7DF" stroke-linecap="round" stroke-linejoin="round"></path>
            <path d="M43.3526,70.6636 C43.3526,73.8646 45.9476,76.4586 49.1476,76.4586 C52.3476,76.4586 54.9416,73.8646 54.9416,70.6636 C54.9416,67.4636 52.3476,64.8696 49.1476,64.8696 C45.9476,64.8696 43.3526,67.4636 43.3526,70.6636 Z" id="Stroke-15" stroke="#FFFFFF" stroke-width="4" fill="#89E7DF" stroke-linecap="round" stroke-linejoin="round"></path>
        </g>
    </g>
</svg>