<?xml version="1.0" encoding="UTF-8"?>
<svg width="70px" height="69px" viewBox="0 0 70 69" version="1.1" xmlns="http://www.w3.org/2000/svg" xmlns:xlink="http://www.w3.org/1999/xlink">
    <!-- Generator: Sketch 51.3 (57544) - http://www.bohemiancoding.com/sketch -->
    <title>Icons / 70px / Necesidades-no / Color</title>
    <desc>Created with Sketch.</desc>
    <defs></defs>
    <g id="Icons-/-70px-/-Necesidades-no-/-Color" stroke="none" stroke-width="1" fill="none" fill-rule="evenodd">
        <g id="Group" transform="translate(3.000000, 0.000000)">
            <path d="M32.5440382,22.7751851 C36.7797776,18.0903315 35.6619274,5.43246672 25.7974543,2.61439837 C13.0840671,-1.01799796 11.267869,2.61439837 11.267869,2.61439837 L2.18687815,2.61439837 C2.18687815,2.61439837 0.36944615,11.696623 2.18687815,13.5115874 C4.00307631,15.3277855 13.0840671,18.9614157 13.0840671,18.9614157 C13.0840671,18.9614157 9.45167081,29.8586047 11.267869,35.3071992 C13.0840671,40.7557937 18.5326616,46.2043882 18.5326616,46.2043882 L14.9002653,60.7352073 C14.9002653,60.7352073 9.45167081,60.7352073 11.267869,68 L16.7164635,68 L22.165058,68 L54.8578588,68 C54.8578588,68 65.7562816,58.9190092 63.9400834,55.2866128 C62.1238853,51.6542165 54.8578588,58.9190092 54.8578588,58.9190092 C54.8578588,58.9190092 54.8578588,48.0205863 53.0416606,44.3894238 C51.2254625,40.7557937 36.6958771,26.2262084 36.6958771,26.2262084 L32.5440382,22.7751851 Z" id="Fill-1" fill="#FCEDCD"></path>
            <path d="M36.3707,25.979 C36.3707,25.979 51.3347,40.943 53.2047,44.684 C55.0757,48.425 55.0757,59.647 55.0757,59.647 C55.0757,59.647 62.5577,52.166 64.4277,55.907 C66.2977,59.647 55.0757,69 55.0757,69 L21.4067,69 C21.4067,69 19.5367,61.518 27.0177,61.518 L32.6297,61.518 C32.6297,61.518 25.1477,52.166 30.7587,46.554 C36.3707,40.943 41.9817,44.684 41.9817,44.684" id="Stroke-1" stroke="#3C3C3C" stroke-width="4" stroke-linecap="round" stroke-linejoin="round"></path>
            <path d="M23.277,7.2739 C23.277,7.2739 17.666,22.2379 27.018,24.1079 C36.371,25.9789 38.241,5.4039 25.148,1.6629 C12.054,-2.0781 10.184,1.6629 10.184,1.6629 L0.831,1.6629 C0.831,1.6629 -1.039,11.0149 0.831,12.8859 C2.702,14.7559 12.054,18.4969 12.054,18.4969 C12.054,18.4969 8.313,29.7199 10.184,35.3319 C12.054,40.9429 17.666,46.5539 17.666,46.5539 L13.925,61.5179 C13.925,61.5179 8.313,61.5179 10.184,68.9999 L15.795,68.9999" id="Stroke-3" stroke="#3C3C3C" stroke-width="4" stroke-linecap="round" stroke-linejoin="round"></path>
        </g>
    </g>
</svg>