<?xml version="1.0" encoding="UTF-8"?>
<svg width="70px" height="61px" viewBox="0 0 70 61" version="1.1" xmlns="http://www.w3.org/2000/svg" xmlns:xlink="http://www.w3.org/1999/xlink">
    <!-- Generator: Sketch 51.3 (57544) - http://www.bohemiancoding.com/sketch -->
    <title>Icons / 70px / Pets-no / Color</title>
    <desc>Created with Sketch.</desc>
    <defs></defs>
    <g id="Icons-/-70px-/-Pets-no-/-Color" stroke="none" stroke-width="1" fill="none" fill-rule="evenodd">
        <g id="Group-31" transform="translate(5.000000, 1.000000)">
            <path d="M52.3728,0.0645 C49.1218,-0.7415 42.9528,6.6045 40.2278,11.6475 C37.1518,11.2085 33.8978,10.9505 30.4998,10.9505 C27.1018,10.9505 23.8478,11.2085 20.7708,11.6475 C18.0478,6.6045 11.9208,-0.7665 8.6268,0.0645 C5.7248,0.7965 0.3058,25.6985 1.0738,34.3665 C2.4958,50.3975 15.9488,58.1485 30.4998,58.1485 C45.0518,58.1485 58.2118,49.0375 59.6338,33.0045 C60.4018,24.3375 55.3258,0.7965 52.3728,0.0645 Z" id="Stroke-1" stroke="#3C3C3C" stroke-width="4" fill="#FFE3A4" stroke-linecap="round"></path>
            <path d="M30.3562,41.0977 C30.3562,43.2377 30.3562,47.2977 26.4802,48.8477" id="Stroke-5" stroke="#000000" stroke-width="3" stroke-linecap="round"></path>
            <path d="M34.2312,48.8482 C30.3562,47.2982 30.3562,43.2382 30.3562,41.0982" id="Stroke-7" stroke="#000000" stroke-width="3" stroke-linecap="round"></path>
            <path d="M33.4558,39.8575 C33.4558,40.8845 32.0678,42.6485 30.3558,42.6485 C28.6438,42.6485 27.2558,40.8845 27.2558,39.8575 C27.2558,38.8305 28.6438,37.9975 30.3558,37.9975 C32.0678,37.9975 33.4558,38.8305 33.4558,39.8575" id="Fill-3" fill="#000000"></path>
            <path d="M19.5056,11.647 L19.5056,19.397 C19.5056,24.047 24.1556,24.047 24.1556,19.397 L24.1556,11.647 L19.5056,11.647 Z" id="Fill-9" fill="#FF8002"></path>
            <path d="M36.5564,11.647 L36.5564,19.397 C36.5564,24.047 41.2064,24.047 41.2064,19.397 L41.2064,11.647 L36.5564,11.647 Z" id="Fill-11" fill="#FF8002"></path>
            <path d="M28.8064,11.647 L28.8064,21.112 C28.8064,25.597 33.4554,25.762 33.4554,21.112 L33.4554,11.647 L28.8064,11.647 Z" id="Fill-13" fill="#FF8002"></path>
            <path d="M7.1053,50.398 L0.9053,56.598" id="Stroke-15" stroke="#3C3C3C" stroke-width="3" stroke-linecap="round"></path>
            <path d="M11.7556,53.4981 L7.1056,59.6981" id="Stroke-17" stroke="#3C3C3C" stroke-width="3" stroke-linecap="round"></path>
            <path d="M53.6062,50.398 L59.8062,56.598" id="Stroke-19" stroke="#3C3C3C" stroke-width="3" stroke-linecap="round"></path>
            <path d="M48.9568,53.4981 L53.6058,59.6981" id="Stroke-21" stroke="#3C3C3C" stroke-width="3" stroke-linecap="round"></path>
            <path d="M25.7058,33.3477 C25.7058,37.9977 21.0558,39.5477 16.4058,39.5477 C13.3058,39.5477 8.6548,38.9117 8.6548,33.3477 C8.6548,30.8817 13.4508,31.4697 17.9558,31.7977 C21.9448,32.0877 25.7058,33.3477 25.7058,33.3477 Z" id="Stroke-23" stroke="#000000" stroke-width="1.5" fill="#FFFFFF" stroke-linecap="round" stroke-linejoin="round"></path>
            <path d="M21.0555,32.5723 C21.0555,34.7123 19.3215,36.4473 17.1805,36.4473 C15.0405,36.4473 13.3055,34.7123 13.3055,32.5723 C13.3055,30.4323 15.8155,31.7973 17.9555,31.7973 C20.0955,31.7973 21.0555,30.4323 21.0555,32.5723" id="Fill-25" fill="#000000"></path>
            <path d="M36.5564,33.3477 C36.5564,37.9977 41.2064,39.5477 45.8564,39.5477 C48.9564,39.5477 53.6074,38.9117 53.6074,33.3477 C53.6074,30.8817 48.8114,31.4697 44.3064,31.7977 C40.3174,32.0877 36.5564,33.3477 36.5564,33.3477 Z" id="Stroke-27" stroke="#000000" stroke-width="1.5" fill="#FFFFFF" stroke-linecap="round" stroke-linejoin="round"></path>
            <path d="M41.2068,32.5723 C41.2068,34.7123 42.9408,36.4473 45.0818,36.4473 C47.2218,36.4473 48.9568,34.7123 48.9568,32.5723 C48.9568,30.4323 46.4468,31.7973 44.3068,31.7973 C42.1668,31.7973 41.2068,30.4323 41.2068,32.5723" id="Fill-29" fill="#000000"></path>
            <path d="M52.3728,0.0645 C49.1218,-0.7415 42.9528,6.6045 40.2278,11.6475 C37.1518,11.2085 33.8978,10.9505 30.4998,10.9505 C27.1018,10.9505 23.8478,11.2085 20.7708,11.6475 C18.0478,6.6045 11.9208,-0.7665 8.6268,0.0645 C5.7248,0.7965 0.3058,25.6985 1.0738,34.3665 C2.4958,50.3975 15.9488,58.1485 30.4998,58.1485 C45.0518,58.1485 58.2118,49.0375 59.6338,33.0045 C60.4018,24.3375 55.3258,0.7965 52.3728,0.0645 Z" id="Stroke-1" stroke="#3C3C3C" stroke-width="4" stroke-linecap="round"></path>
        </g>
    </g>
</svg>