<?xml version="1.0" encoding="UTF-8"?>
<svg width="70px" height="61px" viewBox="0 0 70 61" version="1.1" xmlns="http://www.w3.org/2000/svg" xmlns:xlink="http://www.w3.org/1999/xlink">
    <!-- Generator: Sketch 51.3 (57544) - http://www.bohemiancoding.com/sketch -->
    <title>Icons / 70px / Pets-si / Color</title>
    <desc>Created with Sketch.</desc>
    <defs></defs>
    <g id="Icons-/-70px-/-Pets-si-/-Color" stroke="none" stroke-width="1" fill="none" fill-rule="evenodd">
        <g id="Group-21" transform="translate(6.000000, 1.000000)">
            <path d="M50.5937,14.1682 C51.2797,11.9332 52.6677,5.9742 50.2787,0.0002 C50.2787,0.0002 43.2877,0.0212 40.0727,6.7622 C36.5827,5.3322 32.7397,4.5312 28.6967,4.5312 C24.7397,4.5312 20.9717,5.2902 17.5427,6.6612 C14.3057,0.0192 7.3837,0.0002 7.3837,0.0002 C5.0677,5.7912 6.3017,11.5682 7.0037,13.9542 C2.6517,18.7202 -0.0003,24.9192 -0.0003,31.7162 C-0.0003,46.7312 12.8477,58.9022 28.6967,58.9022 C44.5437,58.9022 57.3917,46.7312 57.3917,31.7162 C57.3917,25.0232 54.8267,18.9052 50.5937,14.1682 Z" id="Stroke-1" stroke="#3C3C3C" stroke-width="4" fill="#FFC53F" stroke-linecap="round" stroke-linejoin="round"></path>
            <path d="M21.8993,25.0266 C21.0413,23.5506 19.4603,22.5476 17.6293,22.5476 C15.7983,22.5476 14.2173,23.5506 13.3593,25.0266" id="Stroke-3" stroke="#000000" stroke-width="3" stroke-linecap="round"></path>
            <path d="M35.4921,25.0266 C36.3501,23.5506 37.9311,22.5476 39.7631,22.5476 C41.5931,22.5476 43.1741,23.5506 44.0321,25.0266" id="Stroke-5" stroke="#000000" stroke-width="3" stroke-linecap="round"></path>
            <path d="M31.2861,29.1252 C31.2861,30.0792 30.1271,31.7162 28.6951,31.7162 C27.2651,31.7162 26.1041,30.0792 26.1041,29.1252 C26.1041,28.1712 27.2651,27.3982 28.6951,27.3982 C30.1271,27.3982 31.2861,28.1712 31.2861,29.1252" id="Fill-7" fill="#F4606F"></path>
            <path d="M28.6952,30.8503 C28.6952,32.9963 27.1852,36.2473 24.8082,36.2473 C23.1172,36.2473 21.6782,35.1663 21.1442,33.6583" id="Stroke-9" stroke="#F4606F" stroke-width="3" stroke-linecap="round"></path>
            <path d="M36.247,33.656 C35.714,35.166 34.274,36.247 32.582,36.247 C30.206,36.247 28.695,32.997 28.695,30.85" id="Stroke-11" stroke="#F4606F" stroke-width="3" stroke-linecap="round"></path>
            <path d="M12.3339,31.7165 C12.3339,31.7165 8.5589,31.7165 6.0409,35.4915" id="Stroke-13" stroke="#000000" stroke-width="1.5" stroke-linecap="round"></path>
            <path d="M13.0976,36.1018 C13.0976,36.1018 9.4146,36.9368 7.7946,41.1758" id="Stroke-15" stroke="#000000" stroke-width="1.5" stroke-linecap="round"></path>
            <path d="M45.0575,31.7165 C45.0575,31.7165 48.8325,31.7165 51.3505,35.4915" id="Stroke-17" stroke="#000000" stroke-width="1.5" stroke-linecap="round"></path>
            <path d="M44.2939,36.1018 C44.2939,36.1018 47.9769,36.9368 49.5969,41.1758" id="Stroke-19" stroke="#000000" stroke-width="1.5" stroke-linecap="round"></path>
        </g>
    </g>
</svg>