<?xml version="1.0" encoding="UTF-8"?>
<svg width="70px" height="101px" viewBox="0 0 70 101" version="1.1" xmlns="http://www.w3.org/2000/svg" xmlns:xlink="http://www.w3.org/1999/xlink">
    <!-- Generator: Sketch 51.3 (57544) - http://www.bohemiancoding.com/sketch -->
    <title>Icons / 70px / Piso / Color</title>
    <desc>Created with Sketch.</desc>
    <defs></defs>
    <g id="Icons-/-70px-/-Piso-/-Color" stroke="none" stroke-width="1" fill="none" fill-rule="evenodd">
        <g id="Group-24" transform="translate(3.000000, 1.000000)">
            <polygon id="Stroke-1" stroke="#3C3C3C" stroke-width="4" fill="#F3F3F3" stroke-linecap="round" stroke-linejoin="round" points="0.390243902 99.4378927 63.3194146 99.4378927 63.3194146 0.390868293 0.390243902 0.390868293"></polygon>
            <path d="M31.8549854,83.7051317 C28.9593756,83.7051317 26.6116683,86.052839 26.6116683,88.9500098 L26.6116683,99.4382049 L37.0983024,99.4382049 L37.0983024,88.9500098 C37.0983024,86.052839 34.7505951,83.7051317 31.8549854,83.7051317 Z" id="Stroke-3" stroke="#3C3C3C" stroke-width="3" fill="#F4606F" stroke-linecap="round" stroke-linejoin="round"></path>
            <polygon id="Fill-4" stroke="#979797" fill="#89E7DF" points="8.256 69.2267707 13.500878 69.2267707 13.500878 61.3610146 8.256 61.3610146"></polygon>
            <polygon id="Fill-5" stroke="#979797" fill="#89E7DF" points="18.7457561 69.2267707 23.9890732 69.2267707 23.9890732 61.3610146 18.7457561 61.3610146"></polygon>
            <polygon id="Fill-6" stroke="#979797" fill="#89E7DF" points="29.2339512 69.2267707 34.4772683 69.2267707 34.4772683 61.3610146 29.2339512 61.3610146"></polygon>
            <polygon id="Fill-7" stroke="#979797" fill="#89E7DF" points="39.7221463 69.2267707 44.9654634 69.2267707 44.9654634 61.3610146 39.7221463 61.3610146"></polygon>
            <polygon id="Fill-8" stroke="#979797" fill="#89E7DF" points="50.2103415 69.2267707 55.4536585 69.2267707 55.4536585 61.3610146 50.2103415 61.3610146"></polygon>
            <polygon id="Fill-9" stroke="#979797" fill="#89E7DF" points="8.256 53.8683317 13.500878 53.8683317 13.500878 46.0010146 8.256 46.0010146"></polygon>
            <polygon id="Fill-10" stroke="#979797" fill="#89E7DF" points="18.7457561 53.8683317 23.9890732 53.8683317 23.9890732 46.0010146 18.7457561 46.0010146"></polygon>
            <polygon id="Fill-11" stroke="#979797" fill="#89E7DF" points="29.2339512 53.8683317 34.4772683 53.8683317 34.4772683 46.0010146 29.2339512 46.0010146"></polygon>
            <polygon id="Fill-12" stroke="#979797" fill="#89E7DF" points="39.7221463 53.8683317 44.9654634 53.8683317 44.9654634 46.0010146 39.7221463 46.0010146"></polygon>
            <polygon id="Fill-13" stroke="#979797" fill="#89E7DF" points="50.2103415 53.8683317 55.4536585 53.8683317 55.4536585 46.0010146 50.2103415 46.0010146"></polygon>
            <polygon id="Fill-14" stroke="#979797" fill="#89E7DF" points="8.256 38.5114537 13.500878 38.5114537 13.500878 30.6456976 8.256 30.6456976"></polygon>
            <polygon id="Fill-15" stroke="#979797" fill="#89E7DF" points="18.7457561 38.5114537 23.9890732 38.5114537 23.9890732 30.6456976 18.7457561 30.6456976"></polygon>
            <polygon id="Fill-16" stroke="#979797" fill="#89E7DF" points="29.2339512 38.5114537 34.4772683 38.5114537 34.4772683 30.6456976 29.2339512 30.6456976"></polygon>
            <polygon id="Fill-17" stroke="#979797" fill="#89E7DF" points="39.7221463 38.5114537 44.9654634 38.5114537 44.9654634 30.6456976 39.7221463 30.6456976"></polygon>
            <polygon id="Fill-18" stroke="#979797" fill="#89E7DF" points="50.2103415 38.5114537 55.4536585 38.5114537 55.4536585 30.6456976 50.2103415 30.6456976"></polygon>
            <polygon id="Fill-19" stroke="#979797" fill="#89E7DF" points="8.256 23.1530146 13.500878 23.1530146 13.500878 15.2856976 8.256 15.2856976"></polygon>
            <polygon id="Fill-20" stroke="#979797" fill="#89E7DF" points="18.7457561 23.1530146 23.9890732 23.1530146 23.9890732 15.2856976 18.7457561 15.2856976"></polygon>
            <polygon id="Fill-21" stroke="#979797" fill="#89E7DF" points="29.2339512 23.1530146 34.4772683 23.1530146 34.4772683 15.2856976 29.2339512 15.2856976"></polygon>
            <polygon id="Fill-22" stroke="#979797" fill="#89E7DF" points="39.7221463 23.1530146 44.9654634 23.1530146 44.9654634 15.2856976 39.7221463 15.2856976"></polygon>
            <polygon id="Fill-23" stroke="#979797" fill="#89E7DF" points="50.2103415 23.1530146 55.4536585 23.1530146 55.4536585 15.2856976 50.2103415 15.2856976"></polygon>
        </g>
    </g>
</svg>