<?xml version="1.0" encoding="UTF-8"?>
<svg width="41px" height="45px" viewBox="0 0 41 45" version="1.1" xmlns="http://www.w3.org/2000/svg" xmlns:xlink="http://www.w3.org/1999/xlink">
    <!-- Generator: Sketch 51.3 (57544) - http://www.bohemiancoding.com/sketch -->
    <title>Icons / 70px / Raza-pequena / Color</title>
    <desc>Created with Sketch.</desc>
    <defs></defs>
    <g id="Icons-/-70px-/-Raza-pequena-/-Color" stroke="none" stroke-width="1" fill="none" fill-rule="evenodd">
        <g id="Group-3">
            <path d="M40.2040854,13.9621829 C40.2040854,10.0614512 38.9495732,0.79145122 34.5593293,0.79145122 C31.9734756,0.79145122 25.562622,8.45242683 23.3883537,11.146939 C22.3346951,10.9405976 21.2481098,10.8264512 20.1340854,10.8264512 C19.0211585,10.8264512 17.9345732,10.9405976 16.8809146,11.146939 C14.7066463,8.45242683 8.29469512,0.79145122 5.70884146,0.79145122 C1.31859756,0.79145122 0.0651829268,10.0614512 0.0651829268,13.9621829 C0.0651829268,18.5148659 1.22530488,23.7458415 3.22176829,27.3491341 C3.21847561,27.4874268 3.20091463,27.6213293 3.20091463,27.759622 C3.20091463,37.1130366 10.7817683,44.6938902 20.1340854,44.6938902 C29.4864024,44.6938902 37.0683537,37.1130366 37.0683537,27.759622 C37.0683537,27.6213293 37.0507927,27.4874268 37.0475,27.3491341 C39.0428659,23.7458415 40.2040854,18.5148659 40.2040854,13.9621829 Z" id="Stroke-47" stroke="#3C3C3C" stroke-width="2.5" fill="#FFC97E" stroke-linecap="round" stroke-linejoin="round"></path>
            <path d="M20.1344146,35.7815854 C20.1344146,37.2391463 18.9512439,38.4223171 17.4936829,38.4223171 C16.343439,38.4223171 15.3655122,37.6869512 15.0033171,36.6629268" id="Stroke-49" stroke="#000000" stroke-linecap="round"></path>
            <path d="M25.2658415,36.6616098 C24.9025488,37.6878293 23.924622,38.4220976 22.774378,38.4220976 C21.3168171,38.4220976 20.1347439,37.2389268 20.1347439,35.7813659" id="Stroke-51" stroke="#000000" stroke-linecap="round"></path>
            <path d="M23.4201829,32.9026829 C23.4201829,34.0112195 21.9494512,35.9132927 20.1340854,35.9132927 C18.3198171,35.9132927 16.8490854,34.0112195 16.8490854,32.9026829 C16.8490854,31.7941463 18.3198171,30.8963415 20.1340854,30.8963415 C21.9494512,30.8963415 23.4201829,31.7941463 23.4201829,32.9026829" id="Fill-53" fill="#000000"></path>
            <path d="M14.4381829,28.3869878 C14.0035488,27.6406463 13.2034268,27.1324756 12.2770854,27.1324756 C11.3507439,27.1324756 10.550622,27.6406463 10.1170854,28.3869878" id="Stroke-55" stroke="#000000" stroke-linecap="round"></path>
            <path d="M30.1518537,28.3869878 C29.7172195,27.6406463 28.9170976,27.1324756 27.9918537,27.1324756 C27.0644146,27.1324756 26.2653902,27.6406463 25.8307561,28.3869878" id="Stroke-57" stroke="#000000" stroke-linecap="round"></path>
            <path d="M6.33664634,7.06280488 L6.30481707,7.06280488 C5.53432927,9.22939024 5.08213415,11.8108537 5.08213415,14.5887805 C5.08213415,16.6456098 5.33457317,18.5904878 5.77469512,20.3432927 C7.53518293,17.1921951 10.3745732,14.6908537 13.8209146,13.3013415 L6.33664634,7.06280488 Z" id="Stroke-59" fill="#FF9F91"></path>
            <path d="M33.9321829,7.06280488 L33.9640122,7.06280488 C34.7345,9.22939024 35.1866951,11.8108537 35.1866951,14.5887805 C35.1866951,16.6456098 34.9342561,18.5904878 34.4941341,20.3432927 C32.7336463,17.1921951 29.8942561,14.6908537 26.4479146,13.3013415 L33.9321829,7.06280488 Z" id="Stroke-61" fill="#FF9F91"></path>
        </g>
    </g>
</svg>