<?xml version="1.0" encoding="UTF-8"?>
<svg width="70px" height="75px" viewBox="0 0 70 75" version="1.1" xmlns="http://www.w3.org/2000/svg" xmlns:xlink="http://www.w3.org/1999/xlink">
    <!-- Generator: Sketch 51.3 (57544) - http://www.bohemiancoding.com/sketch -->
    <title>Icons / 70px / Raza-grande / Color</title>
    <desc>Created with Sketch.</desc>
    <defs></defs>
    <g id="Icons-/-70px-/-Raza-grande-/-Color" stroke="none" stroke-width="1" fill="none" fill-rule="evenodd">
        <g id="Group-23" transform="translate(7.000000, 0.000000)">
            <path d="M55.5713544,5.87744561 C55.5713544,3.03814737 53.2704421,0.737235088 50.4311439,0.737235088 C49.1136702,0.737235088 47.9131088,1.23141053 47.0023719,2.04684912 L38.4363368,11.0186386 C38.4363368,11.0186386 35.0085474,9.30425263 28.1539509,9.30425263 C21.3003368,9.30425263 17.8725474,11.0186386 17.8725474,11.0186386 L9.30552982,2.04684912 C8.39577544,1.23141053 7.19423158,0.737235088 5.87774035,0.737235088 C3.03844211,0.737235088 0.737529825,3.03814737 0.737529825,5.87744561 L0.737529825,45.2896561 C0.737529825,53.334007 14.4457404,74.4214456 28.1549333,74.4214456 C41.8631439,74.4214456 55.5713544,53.334007 55.5713544,45.2896561 L55.5713544,5.87744561 Z" id="Stroke-21" stroke="#3C3C3C" stroke-width="3.5" fill="#000000" stroke-linecap="round" stroke-linejoin="round"></path>
            <path d="M28.1547368,74.4210526 C17.8723509,74.4210526 2.45073684,58.9984561 2.45073684,47.0036491 C2.45073684,43.7065263 4.00596491,40.7778246 6.41985965,38.8974035 C6.92189474,38.5073684 7.65775439,38.7814737 7.7805614,39.4043509 C8.62940351,43.7350175 12.4364211,47.0036491 17.0156491,47.0036491 C22.0399298,47.0036491 26.1338246,43.0689123 26.4138246,38.114386 L26.4403509,38.0927719 L26.4403509,17.8728421 C26.4403509,16.9267368 27.2076491,16.1594386 28.1547368,16.1594386 C29.1008421,16.1594386 29.8681404,16.9267368 29.8681404,17.8728421 L29.8681404,37.946386 L29.886807,37.9601404 C30.0882105,42.986386 34.2155088,47.0036491 39.2928421,47.0036491 C43.8720702,47.0036491 47.6790877,43.7350175 48.5279298,39.4043509 C48.6507368,38.7814737 49.3865965,38.5073684 49.8886316,38.8974035 C52.3025263,40.7778246 53.8577544,43.7065263 53.8577544,47.0036491 C53.8577544,58.9984561 38.4361404,74.4210526 28.1547368,74.4210526 Z" id="Stroke-19" fill="#FFFDEC"></path>
            <path d="M27.8074386,56.430807 C27.8074386,59.7416842 25.1233684,62.4257544 21.8124912,62.4257544 C19.2030877,62.4257544 16.9827368,60.7585263 16.1594386,58.4320702" id="Stroke-3" stroke="#000000" stroke-width="3.5" stroke-linecap="round"></path>
            <path d="M39.4573053,58.4288281 C38.634007,60.7572491 36.4136561,62.4254596 33.8032702,62.4254596 C30.492393,62.4254596 27.8073404,59.7413895 27.8073404,56.4305123" id="Stroke-5" stroke="#000000" stroke-width="3.5" stroke-linecap="round"></path>
            <path d="M33.2948491,52.069193 C33.2948491,53.9201404 30.8387088,57.0964211 27.8078316,57.0964211 C24.7769544,57.0964211 22.320814,53.9201404 22.320814,52.069193 C22.320814,50.2182456 24.7769544,48.7170526 27.8078316,48.7170526 C30.8387088,48.7170526 33.2948491,50.2182456 33.2948491,52.069193" id="Fill-1" fill="#000000"></path>
            <path d="M12.7318456,28.1539509 L19.5864421,28.1539509" id="Stroke-7" stroke="#FFF9E1" stroke-width="3.5" stroke-linecap="round" stroke-linejoin="round"></path>
            <path d="M36.7219509,28.1539509 L43.5765474,28.1539509" id="Stroke-9" stroke="#FFF9E1" stroke-width="3.5" stroke-linecap="round" stroke-linejoin="round"></path>
            <path d="M17.8725474,37.5789474 C17.8725474,38.9985965 16.7220912,40.1490526 15.3024421,40.1490526 C13.882793,40.1490526 12.7323368,38.9985965 12.7323368,37.5789474 C12.7323368,36.1592982 13.882793,35.0088421 15.3024421,35.0088421 C16.7220912,35.0088421 17.8725474,36.1592982 17.8725474,37.5789474" id="Fill-13" fill="#FFFFFF"></path>
            <path d="M43.5765474,37.5789474 C43.5765474,38.9985965 42.4260912,40.1490526 41.0064421,40.1490526 C39.5858105,40.1490526 38.4363368,38.9985965 38.4363368,37.5789474 C38.4363368,36.1592982 39.5858105,35.0088421 41.0064421,35.0088421 C42.4260912,35.0088421 43.5765474,36.1592982 43.5765474,37.5789474" id="Fill-17" fill="#FFFFFF"></path>
            <path d="M55.5713544,5.87744561 C55.5713544,3.03814737 53.2704421,0.737235088 50.4311439,0.737235088 C49.1136702,0.737235088 47.9131088,1.23141053 47.0023719,2.04684912 L38.4363368,11.0186386 C38.4363368,11.0186386 35.0085474,9.30425263 28.1539509,9.30425263 C21.3003368,9.30425263 17.8725474,11.0186386 17.8725474,11.0186386 L9.30552982,2.04684912 C8.39577544,1.23141053 7.19423158,0.737235088 5.87774035,0.737235088 C3.03844211,0.737235088 0.737529825,3.03814737 0.737529825,5.87744561 L0.737529825,45.2896561 C0.737529825,53.334007 14.4457404,74.4214456 28.1549333,74.4214456 C41.8631439,74.4214456 55.5713544,53.334007 55.5713544,45.2896561 L55.5713544,5.87744561 Z" id="Stroke-21" stroke="#3C3C3C" stroke-width="3.5" stroke-linecap="round" stroke-linejoin="round"></path>
        </g>
    </g>
</svg>