<?xml version="1.0" encoding="UTF-8"?>
<svg width="60px" height="59px" viewBox="0 0 60 59" version="1.1" xmlns="http://www.w3.org/2000/svg" xmlns:xlink="http://www.w3.org/1999/xlink">
    <!-- Generator: Sketch 51.3 (57544) - http://www.bohemiancoding.com/sketch -->
    <title>Icons / 70px / Raza-mediana / Color</title>
    <desc>Created with Sketch.</desc>
    <defs></defs>
    <g id="Icons-/-70px-/-Raza-mediana-/-Color" stroke="none" stroke-width="1" fill="none" fill-rule="evenodd">
        <g id="Group-2">
            <path d="M52.6259444,32.1673129 C60.2223806,23.051846 60.2223806,10.8970349 58.70335,4.06139701 C58.2478974,2.01250178 57.0021383,0.26253742 54.9044904,0.26253742 C51.1069138,0.26253742 37.433072,10.9894084 37.433072,10.9894084 C35.4508909,9.96816821 32.3525303,9.40366358 30.5961511,9.37800428 C28.468995,9.34721311 24.2223806,9.96816821 22.2389166,10.9894084 C22.2389166,10.9894084 8.5663578,0.26253742 4.76749822,0.26253742 C2.66985032,0.26253742 1.42409123,2.01250178 0.969921597,4.06139701 C-0.549109052,10.8970349 -0.549109052,23.051846 7.04732716,32.1673129 C7.04732716,32.1673129 7.04732716,37.4954669 2.05787598,41.9152815 C1.54468995,42.3707341 1.63449751,43.2020955 2.22466144,43.5561939 L8.5663578,47.3614683 L7.04732716,48.879216 C7.04732716,48.879216 17.6818247,57.9959658 30.5961511,57.9959658 C43.5104775,57.9959658 52.6259444,48.879216 52.6259444,48.879216 L51.1069138,47.3614683 L57.4486101,43.5561939 C58.0374911,43.2020955 58.1285816,42.3707341 57.6141126,41.9152815 C52.6259444,37.4954669 52.6259444,32.1673129 52.6259444,32.1673129 Z" id="Stroke-29" stroke="#3C3C3C" stroke-width="3" fill="#FF9C31" stroke-linecap="round" stroke-linejoin="round"></path>
            <path d="M42.3703065,30.6487954 C42.3703065,32.3269138 41.0103635,33.6868567 39.3322452,33.6868567 C37.6541269,33.6868567 36.2929009,32.3269138 36.2929009,30.6487954 C36.2929009,28.9693942 37.6541269,27.6094512 39.3322452,27.6094512 C41.0103635,27.6094512 42.3703065,28.9693942 42.3703065,30.6487954" id="Fill-31" fill="#000000"></path>
            <path d="M23.3796009,30.6487954 C23.3796009,32.3269138 22.0183749,33.6868567 20.3402566,33.6868567 C18.6621383,33.6868567 17.3021953,32.3269138 17.3021953,30.6487954 C17.3021953,28.9693942 18.6621383,27.6094512 20.3402566,27.6094512 C22.0183749,27.6094512 23.3796009,28.9693942 23.3796009,30.6487954" id="Fill-33" fill="#000000"></path>
            <path d="M16.1491946,14.3837491 L6.52182466,7.72002851 C6.24085531,7.52373485 5.84313614,7.69180328 5.79823236,8.03050606 C5.42360656,10.826087 5.45952958,13.8038489 6.00094084,16.848325 C6.58340699,20.1301497 7.68803991,23.1412687 9.15831789,25.7803279 C10.2103493,21.0885246 12.7211119,17.0574483 16.1491946,14.3837491 Z" id="Stroke-37" fill="#FFE7E4"></path>
            <path d="M43.5236921,14.3837491 L53.151062,7.72002851 C53.4320314,7.52373485 53.8297505,7.69180328 53.8746543,8.03050606 C54.2492801,10.826087 54.2133571,13.8038489 53.6719458,16.848325 C53.0894797,20.1301497 51.9848468,23.1412687 50.5145688,25.7803279 C49.4625374,21.0885246 46.9517748,17.0574483 43.5236921,14.3837491 Z" id="Stroke-39" fill="#FFE7E4"></path>
            <path d="M40.4716465,36.687712 C36.5906771,35.662623 33.2908909,33.1544262 32.9149822,29.1618389 L32.8752103,29.1284818 C32.8752103,29.1284818 31.5460584,20.0309765 31.3561796,16.9749537 C31.303578,16.1358945 30.6749252,15.4546401 29.835866,15.4546401 C28.9980898,15.4546401 28.3694369,16.1358945 28.3168354,16.9749537 C28.1269565,20.0309765 26.7978047,29.1284818 26.7978047,29.1284818 L26.7580328,29.1618389 C26.3667284,33.3199287 22.7923877,35.6408125 18.6997292,36.7133713 C16.7021525,37.2355381 13.1239629,38.2452316 13.1239629,42.8036066 C13.1239629,48.8797292 23.4787741,54.9571347 29.835866,54.9571347 C36.1454882,54.9571347 46.549052,48.8797292 46.549052,42.8036066 C46.549052,38.2452316 42.5564647,37.2381041 40.4716465,36.687712 Z" id="Stroke-41" fill="#F6EE99"></path>
            <path d="M29.8363792,42.6891661 C29.8363792,44.8496793 28.0851319,46.5996436 25.9271846,46.5996436 C24.22469,46.5996436 22.7775053,45.5116892 22.239943,43.9952245" id="Stroke-43" stroke="#000000" stroke-width="1.5" stroke-linecap="round"></path>
            <path d="M37.4326871,43.9921454 C36.8964077,45.5111761 35.4479401,46.5991304 33.7454455,46.5991304 C31.5862153,46.5991304 29.8362509,44.8491661 29.8362509,42.6886529" id="Stroke-45" stroke="#000000" stroke-width="1.5" stroke-linecap="round"></path>
            <path d="M33.2549679,39.3839914 C33.2549679,40.3077263 30.976422,42.8030934 29.6062153,42.8030934 C28.696593,42.8030934 26.418047,40.3077263 26.418047,39.3839914 C26.418047,38.4602566 28.0948824,38.2447185 29.6062153,38.2447185 C31.1175481,38.2447185 33.2549679,38.4602566 33.2549679,39.3839914" id="Fill-35" fill="#000000"></path>
        </g>
    </g>
</svg>